<svg xmlns="http://www.w3.org/2000/svg" width="24" height="24" fill="none" viewBox="0 0 24 24" id="line-attach-file"><path fill="white" fill-rule="evenodd" d="M1.25 3C1.25 2.0335 2.0335 1.25 3 1.25H21C21.9665 1.25 22.75 2.0335 22.75 3V15.5C22.75 15.9142 22.4142 16.25 22 16.25C21.5858 16.25 21.25 15.9142 21.25 15.5V3C21.25 2.86193 21.1381 2.75 21 2.75H3C2.86193 2.75 2.75 2.86193 2.75 3V21C2.75 21.1381 2.86193 21.25 3 21.25H21C21.1381 21.25 21.25 21.1381 21.25 21V19.5C21.25 19.0858 21.5858 18.75 22 18.75C22.4142 18.75 22.75 19.0858 22.75 19.5V21C22.75 21.9665 21.9665 22.75 21 22.75H3C2.0335 22.75 1.25 21.9665 1.25 21V3Z" clip-rule="evenodd"></path><path fill="white" fill-rule="evenodd" d="M4.25 6C4.25 5.58579 4.58579 5.25 5 5.25H9C9.41421 5.25 9.75 5.58579 9.75 6 9.75 6.41421 9.41421 6.75 9 6.75H5C4.58579 6.75 4.25 6.41421 4.25 6zM4.25 9C4.25 8.58579 4.58579 8.25 5 8.25H9C9.41421 8.25 9.75 8.58579 9.75 9 9.75 9.41421 9.41421 9.75 9 9.75H5C4.58579 9.75 4.25 9.41421 4.25 9z" clip-rule="evenodd"></path></svg>